<?xml version="1.0" encoding="utf-8"?>
<!-- Generator: Adobe Illustrator 21.0.2, SVG Export Plug-In . SVG Version: 6.00 Build 0)  -->
<svg version="1.1" id="Calque_1" xmlns="http://www.w3.org/2000/svg" xmlns:xlink="http://www.w3.org/1999/xlink" x="0px" y="0px"
	 viewBox="0 0 927 267" style="enable-background:new 0 0 927 267;" xml:space="preserve">
<style type="text/css">
	.st0{fill:#0070E0;}
</style>
<g>
	<g>
		<path class="st0" d="M288.1,90.7c12.8,0,23.3,3.7,31.5,11.1c8.2,7.4,12.3,17.1,12.3,28.9c0,11.8-4.1,21.5-12.3,29
			c-8.2,7.5-18.7,11.2-31.5,11.2h-28.2V90.7H288.1z M279.4,156.1h8.7c7.5,0,13.3-2.3,17.6-6.9c4.3-4.6,6.4-10.7,6.4-18.4
			c0-7.7-2.1-13.8-6.4-18.4c-4.3-4.6-10.1-6.9-17.6-6.9h-8.7V156.1z"/>
		<path class="st0" d="M358.6,100c-2.2,2.2-4.9,3.3-8.1,3.3s-5.9-1.1-8.1-3.3c-2.2-2.2-3.3-4.9-3.3-8.2c0-3.2,1.1-6,3.3-8.2
			c2.2-2.2,4.9-3.3,8.1-3.3s5.9,1.1,8.1,3.3c2.2,2.2,3.3,4.9,3.3,8.2C361.9,95.1,360.8,97.8,358.6,100z M340.7,170.9v-63.7h19.5
			v63.7H340.7z"/>
		<path class="st0" d="M377.6,162.6c-5.6-6.1-8.5-13.9-8.5-23.4c0-9.5,2.8-17.3,8.5-23.5c5.6-6.1,12.5-9.2,20.6-9.2
			c8.1,0,14.3,3,18.7,9v-8.3h19.5v63.4c0,8.9-2.4,16.3-7.3,22.3c-2.4,3-5.8,5.4-10,7.1c-4.2,1.7-9.1,2.5-14.7,2.5
			c-9.8,0-17.5-2-23.2-5.9c-5.7-4-9-10-9.7-18.2h19.2c1.8,4.8,6.4,7.2,13.7,7.2c3.6,0,6.5-1.2,8.9-3.6c2.4-2.4,3.5-6.2,3.5-11.4
			v-8.9c-4.7,6.7-11,10.1-19,10.1C390.1,171.7,383.3,168.7,377.6,162.6z M412.7,150.7c2.8-2.7,4.2-6.6,4.2-11.7s-1.4-8.9-4.2-11.6
			c-2.8-2.7-6.1-4.1-9.7-4.1s-6.9,1.4-9.7,4.1c-2.8,2.7-4.2,6.6-4.2,11.7c0,5,1.4,8.9,4.2,11.6c2.8,2.7,6.1,4.1,9.7,4.1
			S409.9,153.4,412.7,150.7z"/>
		<path class="st0" d="M467.9,100c-2.2,2.2-4.9,3.3-8.1,3.3s-5.9-1.1-8.1-3.3c-2.2-2.2-3.3-4.9-3.3-8.2c0-3.2,1.1-6,3.3-8.2
			c2.2-2.2,4.9-3.3,8.1-3.3s5.9,1.1,8.1,3.3c2.2,2.2,3.3,4.9,3.3,8.2C471.2,95.1,470.1,97.8,467.9,100z M450.1,170.9v-63.7h19.5
			v63.7H450.1z"/>
		<path class="st0" d="M502.7,107.2v11.9c4.6-8.4,10.7-12.6,18.3-12.6v19.9h-4.8c-4.5,0-7.9,1.1-10.1,3.2c-2.2,2.1-3.4,5.9-3.4,11.2
			v30.2h-19.5v-63.7H502.7z"/>
		<path class="st0" d="M555.2,171.7c-9.3,0-16.9-3-22.8-9c-5.9-6-8.9-13.9-8.9-23.8c0-9.9,3-17.8,8.9-23.6
			c5.9-5.9,13.5-8.8,22.9-8.8c9.4,0,17.1,2.9,23.3,8.7c6.2,5.8,9.3,13.8,9.3,24.1c0,2.2-0.2,4.3-0.5,6.2h-43.9
			c0.4,2.8,1.6,5.1,3.8,6.9c2.1,1.8,4.4,2.7,6.9,2.7c2.5,0,4.3-0.2,5.5-0.7c1.2-0.5,2.1-1,2.7-1.5c0.6-0.5,1.3-1.3,2.2-2.5h21.1
			c-1.8,6.4-5.5,11.6-11,15.5C569.2,169.8,562.7,171.7,555.2,171.7z M563.5,126c-2.3-1.9-5-2.8-8.1-2.8c-3.1,0-5.8,0.9-7.9,2.8
			c-2.1,1.9-3.5,4.3-4,7.3h23.9C567.1,130.3,565.8,127.8,563.5,126z"/>
		<path class="st0" d="M600.9,162.8c-5.9-5.9-8.9-13.9-8.9-23.8c0-9.9,3-17.8,8.9-23.7c5.9-5.9,13.5-8.9,22.9-8.9
			c7.8,0,14.4,1.9,19.8,5.8c5.4,3.8,9,9.4,10.7,16.5h-21.1c-1.8-3.8-4.8-5.7-9-5.7c-4.2,0-7.2,1.5-9.3,4.4c-2,2.9-3,6.8-3,11.6
			c0,4.8,1,8.7,3,11.6c2,2.9,5,4.4,8.9,4.4c2.4,0,4.3-0.4,5.7-1.3c1.4-0.8,2.6-2.3,3.7-4.5h21.1c-1.8,6.9-5.4,12.3-10.9,16.3
			c-5.5,4-12,6.1-19.6,6.1C614.5,171.7,606.8,168.8,600.9,162.8z"/>
		<path class="st0" d="M688.8,171.7c-9.3,0-16.9-3-22.8-9c-5.9-6-8.9-13.9-8.9-23.8c0-9.9,3-17.8,8.9-23.6
			c5.9-5.9,13.5-8.8,22.9-8.8c9.4,0,17.1,2.9,23.3,8.7c6.2,5.8,9.3,13.8,9.3,24.1c0,2.2-0.2,4.3-0.5,6.2h-43.9
			c0.4,2.8,1.6,5.1,3.8,6.9c2.1,1.8,4.4,2.7,6.9,2.7c2.5,0,4.3-0.2,5.5-0.7c1.2-0.5,2.1-1,2.7-1.5c0.6-0.5,1.3-1.3,2.2-2.5h21.1
			c-1.8,6.4-5.5,11.6-11,15.5C702.9,169.8,696.4,171.7,688.8,171.7z M697.2,126c-2.3-1.9-5-2.8-8.1-2.8c-3.1,0-5.8,0.9-7.9,2.8
			c-2.1,1.9-3.5,4.3-4,7.3h23.9C700.7,130.3,699.5,127.8,697.2,126z"/>
		<path class="st0" d="M748.2,100c-2.2,2.2-4.9,3.3-8.1,3.3c-3.2,0-5.9-1.1-8.1-3.3c-2.2-2.2-3.3-4.9-3.3-8.2c0-3.2,1.1-6,3.3-8.2
			c2.2-2.2,4.9-3.3,8.1-3.3c3.2,0,5.9,1.1,8.1,3.3c2.2,2.2,3.3,4.9,3.3,8.2C751.5,95.1,750.4,97.8,748.2,100z M730.4,170.9v-63.7
			h19.5v63.7H730.4z"/>
		<path class="st0" d="M783.1,115.5c4.3-6,10.6-9,18.7-9s15,3.1,20.6,9.2c5.6,6.1,8.5,14,8.5,23.5c0,9.5-2.8,17.3-8.5,23.4
			c-5.6,6.1-12.5,9.1-20.4,9.1c-8,0-14.3-3.4-18.8-10.1v39.6h-19.5v-94.1h19.5V115.5z M806.7,150.8c2.8-2.7,4.2-6.6,4.2-11.6
			c0-5-1.4-8.9-4.2-11.7c-2.8-2.7-6.1-4.1-9.7-4.1c-3.7,0-6.9,1.4-9.7,4.1c-2.8,2.7-4.2,6.6-4.2,11.6s1.4,8.9,4.2,11.7
			c2.8,2.7,6.1,4.1,9.7,4.1C800.7,154.8,803.9,153.5,806.7,150.8z"/>
		<path class="st0" d="M866.8,154.4h7v16.6h-9.9c-7.2,0-12.7-1.6-16.6-4.7c-3.9-3.2-5.9-8.6-5.9-16.3v-26.5h-5.9v-16.2h5.9V91.6
			h19.5v15.5h12.8v16.2h-12.8v26.5C860.9,152.9,862.8,154.4,866.8,154.4z"/>
	</g>
	<g>
		<path class="st0" d="M54,56.4V211h19.2v-41l21.9,15.9l17.9-15.9l17.9,15.9l17.9-15.9l17.9,15.9l21.9-15.9v41h19.8V56.4H54z
			 M151.5,140.5c-7.1,6.4-16.2,9.7-27.2,9.7H99.9V81h24.3c11,0,20.1,3.2,27.2,9.6c7.1,6.4,10.6,14.7,10.6,24.9
			C162.1,125.8,158.6,134.1,151.5,140.5z"/>
		<path class="st0" d="M124.3,93.8h-7.5v43.6h7.5c6.4,0,11.5-2,15.2-5.9s5.5-9.2,5.5-15.9s-1.8-11.9-5.5-15.9
			C135.8,95.8,130.7,93.8,124.3,93.8z"/>
	</g>
</g>
</svg>
